<svg viewBox="0 0 520 400" xmlns="http://www.w3.org/2000/svg">
  <defs>
    <linearGradient id="bg2" x1="0" y1="0" x2="1" y2="1">
      <stop offset="0%" stop-color="#dcfce7"/>
      <stop offset="100%" stop-color="#cdeedd"/>
    </linearGradient>
  </defs>
  <rect width="520" height="400" rx="24" fill="url(#bg2)"/>

  <!-- container box (top view) -->
  <ellipse cx="260" cy="240" rx="190" ry="110" fill="#ffffff" stroke="#bfe3cb" stroke-width="4"/>
  <ellipse cx="260" cy="240" rx="170" ry="92" fill="#f6fff9"/>

  <!-- fruit pieces mix -->
  <g transform="translate(190,210)">
    <path d="M-30 30 a40 40 0 0 1 60 0 z" fill="#ff6b81"/>
    <path d="M-30 30 a40 40 0 0 1 60 0 z" fill="none" stroke="#3fa86b" stroke-width="7"/>
  </g>

  <g transform="translate(290,190)">
    <circle r="26" fill="#ffb648"/>
    <circle r="21" fill="#ffd28a"/>
    <g stroke="#ffb648" stroke-width="2">
      <line x1="0" y1="-21" x2="0" y2="21"/>
      <line x1="-18" y1="-11" x2="18" y2="11"/>
      <line x1="-18" y1="11" x2="18" y2="-11"/>
    </g>
  </g>

  <g transform="translate(330,250)">
    <circle r="22" fill="#a3d977"/>
    <circle r="17" fill="#c4e896"/>
    <circle r="4" fill="#f6fff9"/>
  </g>

  <g transform="translate(220,270)">
    <path d="M-14 0 C-14 22 14 22 14 0 C14 -7 -14 -7 -14 0 Z" fill="#ff5c7a"/>
    <path d="M-8 -6 L0 -16 L8 -6 Z" fill="#3fa86b"/>
  </g>

  <g transform="translate(180,260)">
    <ellipse rx="18" ry="14" fill="#ffe27a"/>
  </g>

  <g transform="translate(280,260)">
    <circle r="14" fill="#7b3fa0"/>
  </g>
  <g transform="translate(300,275)">
    <circle r="14" fill="#9b59c7"/>
  </g>

  <!-- fork -->
  <g transform="translate(380,300) rotate(20)">
    <rect x="-4" y="-40" width="8" height="60" rx="3" fill="#a78bda"/>
    <rect x="-14" y="-50" width="6" height="20" rx="2" fill="#a78bda"/>
    <rect x="-2" y="-50" width="6" height="20" rx="2" fill="#a78bda"/>
    <rect x="10" y="-50" width="6" height="20" rx="2" fill="#a78bda"/>
  </g>
</svg>
